<?xml version="1.0" encoding="iso-8859-1"?>
<!-- Generator: Adobe Illustrator 19.0.0, SVG Export Plug-In . SVG Version: 6.00 Build 0)  -->
<svg version="1.1" id="Capa_1" xmlns="http://www.w3.org/2000/svg" xmlns:xlink="http://www.w3.org/1999/xlink" x="0px" y="0px"
	 viewBox="0 0 512 512" style="enable-background:new 0 0 512 512;" xml:space="preserve">
<g>
	<g>
		<polygon style="fill:#111111;" points="455.633,338.012 455.633,239.849 271,239.849 271,173.986 327.942,173.986 327.942,30.1 184.058,30.1 
			184.058,173.985 241,173.985 241,239.848 56.367,239.848 56.367,338.012 0,338.012 0,481.898 143.886,481.898 143.886,338.012 
			86.367,338.012 86.367,269.849 241,269.849 241,338.013 184.058,338.013 184.058,481.9 327.943,481.9 327.943,338.012 
			271,338.012 271,269.849 425.633,269.849 425.633,338.013 368.114,338.013 368.114,481.9 512,481.9 512,338.012 		"/>
	</g>
</g>
<g>
</g>
<g>
</g>
<g>
</g>
<g>
</g>
<g>
</g>
<g>
</g>
<g>
</g>
<g>
</g>
<g>
</g>
<g>
</g>
<g>
</g>
<g>
</g>
<g>
</g>
<g>
</g>
<g>
</g>
</svg>
